<svg xmlns="http://www.w3.org/2000/svg" viewBox="0 0 411.08 312.26"><defs><style>.cls-1{fill:#fff;}</style></defs><g id="Layer_2" data-name="Layer 2"><g id="Layer_1-2" data-name="Layer 1"><path class="cls-1" d="M127.45,309.76c-35,0-62-11.35-78.1-32.82-19.16-25.52-20.23-62.1-3-103,17-40.46,50-80.43,92.76-112.56C188.92,24,245,2.5,293,2.5c35,0,62,11.35,78.09,32.83,19.16,25.51,20.23,62.1,3,103-17,40.46-50,80.43-92.76,112.56C231.57,288.3,175.46,309.76,127.45,309.76Z"/><path d="M293,5c32.72,0,60,10.39,76.09,31.83C407.6,88.06,367.65,183,279.89,248.89c-51,38.32-107,58.37-152.44,58.37-32.72,0-60-10.38-76.1-31.82C12.88,224.2,52.84,129.26,140.59,63.37,191.62,25.05,247.58,5,293,5m0-5V0c-48.55,0-105.2,21.64-155.45,59.37C94.45,91.76,61.22,132.1,44,173,35.56,193.08,31.42,212.28,31.72,230c.32,18.73,5.58,35,15.63,48.4,8.43,11.22,19.84,19.83,33.92,25.58,13.4,5.47,28.93,8.24,46.18,8.24,48.53,0,105.19-21.64,155.44-59.37C326,220.5,359.26,180.16,376.45,139.3c8.47-20.12,12.61-39.32,12.31-57.08-.32-18.73-5.58-35-15.63-48.4C364.7,22.6,353.29,14,339.21,8.24,325.81,2.77,310.28,0,293,0Z"/><ellipse cx="194.08" cy="134.25" rx="168.7" ry="80.92" transform="translate(-41.73 143.43) rotate(-36.9)"/><path class="cls-1" d="M342.39,187.81a3.87,3.87,0,0,1-4.08-3.91,4.81,4.81,0,0,1,.32-1.68l5.49-14.66a5.82,5.82,0,0,1-4.58,2.41h-9.17a3.88,3.88,0,0,1-4-3.92,4.81,4.81,0,0,1,.32-1.68l6.2-16.74a6.1,6.1,0,0,1,5.44-3.86H357a4.11,4.11,0,0,1,.8.07h46.86a3.79,3.79,0,0,1,4,3.86,5.05,5.05,0,0,1-.29,1.66l-6.37,16.78a6,6,0,0,1-5.38,3.84h-9.17a3.88,3.88,0,0,1-4-3.92,4.81,4.81,0,0,1,.32-1.68l5.17-13.68a1,1,0,0,0-.36.41L375.88,184a6,6,0,0,1-5.38,3.83Zm5.27-29.66,2.56-6.83a1.2,1.2,0,0,0-.36.39Z"/><path d="M357,146.26a1.61,1.61,0,0,1,.51.07h47.15a1.31,1.31,0,0,1,1.47,1.36,2.69,2.69,0,0,1-.16.87l-6.34,16.68a3.52,3.52,0,0,1-3,2.23h-9.17a1.37,1.37,0,0,1-1.52-1.42,2.33,2.33,0,0,1,.16-.81l5.69-15.05a2.13,2.13,0,0,0,.16-.81,1.33,1.33,0,0,0-1.52-1.36h-1.09a3.54,3.54,0,0,0-3.1,2.17l-12.61,32.89a3.52,3.52,0,0,1-3,2.23H342.39a1.39,1.39,0,0,1-1.58-1.41,2.39,2.39,0,0,1,.16-.82l12.1-32.25a2.17,2.17,0,0,0,.16-.82,1.12,1.12,0,0,0,0-.32,1.34,1.34,0,0,0-1.48-1h-1.09a3.55,3.55,0,0,0-3.1,2.18l-4.94,14.41a3.52,3.52,0,0,1-3,2.23h-9.17a1.37,1.37,0,0,1-1.52-1.42,2.33,2.33,0,0,1,.16-.81l6.2-16.74a3.6,3.6,0,0,1,3.1-2.23H357m0-5H338.31a8.55,8.55,0,0,0-7.75,5.41l0,0,0,0-6.2,16.74a7.41,7.41,0,0,0-.47,2.55,6.33,6.33,0,0,0,6.52,6.42h9.24l-3.32,8.85a7.44,7.44,0,0,0-.48,2.58,6.36,6.36,0,0,0,6.58,6.41H370.5a8.51,8.51,0,0,0,7.7-5.41l5.24-13.66a6.66,6.66,0,0,0,3.93,1.23h9.17a8.53,8.53,0,0,0,7.7-5.4v0l6.34-16.68,0-.1,0-.09a7.48,7.48,0,0,0,.42-2.46,6.27,6.27,0,0,0-6.47-6.36H358a6.54,6.54,0,0,0-1-.07Z"/><path class="cls-1" d="M48.06,143.64A3.87,3.87,0,0,1,44,139.72a4.67,4.67,0,0,1,.35-1.75l9.79-25.48a3.35,3.35,0,0,1-.84.1,3.18,3.18,0,0,1-2.37-1L40.06,139.8a6.05,6.05,0,0,1-5.38,3.84H6.58a3.87,3.87,0,0,1-4.08-3.92A4.81,4.81,0,0,1,2.84,138l13.25-34.49a6.11,6.11,0,0,1,5.44-3.84h29.3a5.09,5.09,0,0,1,4.74,3h0a9.09,9.09,0,0,1,6.19-3H91.12a3.89,3.89,0,0,1,4,3.92,4.81,4.81,0,0,1-.34,1.74L81.54,139.8a6.05,6.05,0,0,1-5.37,3.84Z"/><path d="M91.12,102.15a1.37,1.37,0,0,1,1.52,1.42,2.33,2.33,0,0,1-.16.81L79.21,138.91a3.52,3.52,0,0,1-3,2.23H48.06a1.4,1.4,0,0,1-1.58-1.42,2.14,2.14,0,0,1,.17-.81l13.26-34.53c.05-.11.05-.16.11-.27a6.47,6.47,0,0,0-1.58,1.2l-4.35,4.4a1.13,1.13,0,0,1-.81.38.55.55,0,0,1-.6-.38l-1-4.4a1.68,1.68,0,0,0-.6-1.2c-.05.11-.05.16-.11.27L37.73,138.91a3.54,3.54,0,0,1-3,2.23H6.58A1.4,1.4,0,0,1,5,139.72a2.13,2.13,0,0,1,.16-.81l13.27-34.53a3.6,3.6,0,0,1,3.1-2.23h29.3a2.73,2.73,0,0,1,2.72,2.29l.65,3.21,3.16-3.21a6.67,6.67,0,0,1,4.4-2.29H91.12m0-5H61.76A10.33,10.33,0,0,0,56,99.1a7.59,7.59,0,0,0-5.15-1.95H21.53a8.58,8.58,0,0,0-7.76,5.41L.5,137.09a7.26,7.26,0,0,0-.5,2.63,6.36,6.36,0,0,0,6.58,6.42h28.1a8.47,8.47,0,0,0,7.15-4.27,6.4,6.4,0,0,0,6.23,4.27H76.17a8.53,8.53,0,0,0,7.7-5.41L97.14,106.2a7.26,7.26,0,0,0,.5-2.63,6.33,6.33,0,0,0-6.52-6.42Z"/><path class="cls-1" d="M85.18,143.64a3,3,0,0,1-2.49-1.3,3.21,3.21,0,0,1-.34-3A3.81,3.81,0,0,1,85.78,137h1.11l11.82-30.71A3,3,0,0,1,97,105a3.21,3.21,0,0,1-.34-3,3.87,3.87,0,0,1,3.48-2.44H138.3a3,3,0,0,1,2.5,1.29,3.15,3.15,0,0,1,.33,2.91,3.93,3.93,0,0,1-3.48,2.49h-1.06l-11.82,30.72a3.05,3.05,0,0,1,2.06,4.08,3.94,3.94,0,0,1-3.48,2.5Z"/><path d="M138.3,102.15c.44,0,.65.38.49.82a1.45,1.45,0,0,1-1.14.87h-2.77l-13.71,35.61H124a.57.57,0,0,1,.54.82,1.45,1.45,0,0,1-1.14.87H85.18a.59.59,0,0,1-.49-.87,1.32,1.32,0,0,1,1.09-.82h2.83l13.7-35.61H99.48A.59.59,0,0,1,99,103a1.39,1.39,0,0,1,1.14-.82H138.3m0-5H100.13a6.36,6.36,0,0,0-5.82,4,5.76,5.76,0,0,0,.62,5.27,5.43,5.43,0,0,0,.7.81l-10.47,27.2a6.37,6.37,0,0,0-5.15,4,5.69,5.69,0,0,0,.63,5.25,5.52,5.52,0,0,0,4.54,2.38h38.17a6.38,6.38,0,0,0,5.82-4.12,5.61,5.61,0,0,0-.62-5.18,5.51,5.51,0,0,0-.7-.82l10.47-27.22a6.42,6.42,0,0,0,5.15-4.07,5.66,5.66,0,0,0-.61-5.21,5.55,5.55,0,0,0-4.56-2.37Z"/><path class="cls-1" d="M134,143.64a5,5,0,0,1-5.22-5.06,7,7,0,0,1,.4-2.15l1.78-4.58a6.07,6.07,0,0,1,5.38-3.82h28.11a3.87,3.87,0,0,1,4.07,3.92,4.66,4.66,0,0,1-.34,1.75l-1.19,3a1.19,1.19,0,0,0,.35-.43L171.67,125H141.12a5,5,0,0,1-5.16-5.06,6.7,6.7,0,0,1,.4-2.15l4.82-12.66A8.91,8.91,0,0,1,149,99.65h62.9A4.86,4.86,0,0,1,217,104.6a6.85,6.85,0,0,1-.4,2.2l-1.71,4.56a6.06,6.06,0,0,1-5.39,3.84H181.3a3.88,3.88,0,0,1-4-3.91,4.66,4.66,0,0,1,.34-1.75l1.14-3a1,1,0,0,0-.35.4l-4.33,11.38h30.6a4.89,4.89,0,0,1,5.11,5,7,7,0,0,1-.4,2.21l-4.82,12.6a8.87,8.87,0,0,1-7.67,5.53Z"/><path d="M211.85,102.15a2.39,2.39,0,0,1,2.61,2.45,4.38,4.38,0,0,1-.27,1.41l-1.68,4.46a3.54,3.54,0,0,1-3,2.23H181.3a1.37,1.37,0,0,1-1.52-1.41,2.17,2.17,0,0,1,.16-.82l1.69-4.46a2.13,2.13,0,0,0,.16-.81,1.33,1.33,0,0,0-1.52-1.36h-1.09a3.54,3.54,0,0,0-3.1,2.17l-4.78,12.56a2.19,2.19,0,0,0-.17.82,1.38,1.38,0,0,0,1.53,1.41h32a2.4,2.4,0,0,1,2.61,2.5,4.73,4.73,0,0,1-.27,1.42l-4.79,12.5a6.34,6.34,0,0,1-5.33,3.92H134a2.53,2.53,0,0,1-2.72-2.56,4.43,4.43,0,0,1,.27-1.36l1.74-4.46a3.54,3.54,0,0,1,3.05-2.23h28.11A1.39,1.39,0,0,1,166,132a2.13,2.13,0,0,1-.16.81l-1.74,4.46a2.14,2.14,0,0,0-.16.82,1.37,1.37,0,0,0,1.52,1.41h1.09a3.6,3.6,0,0,0,3.1-2.23l4.78-12.5a2.21,2.21,0,0,0,.16-.82,1.37,1.37,0,0,0-1.52-1.41h-32a2.48,2.48,0,0,1-2.66-2.56,4.43,4.43,0,0,1,.27-1.36L143.51,106a6.44,6.44,0,0,1,5.44-3.86h62.9m0-5H149a11.4,11.4,0,0,0-10.1,7.07l-4.79,12.57,0,.1,0,.1a9,9,0,0,0-.53,2.94,7.46,7.46,0,0,0,2.43,5.62,8.56,8.56,0,0,0-7.25,5.39l-1.74,4.46-.05.12,0,.12a9,9,0,0,0-.53,2.94,7.56,7.56,0,0,0,7.72,7.56h62.9a11.37,11.37,0,0,0,10-7.12l4.79-12.52,0-.1,0-.1a9.6,9.6,0,0,0,.53-3,7.38,7.38,0,0,0-2.46-5.61,8.54,8.54,0,0,0,7.33-5.4v-.05l1.69-4.46,0-.09,0-.09a9.57,9.57,0,0,0,.52-3,7.37,7.37,0,0,0-7.61-7.45Z"/><path class="cls-1" d="M248.54,143.64a3.87,3.87,0,0,1-4.07-3.92,4.61,4.61,0,0,1,.34-1.74l4.9-12.79a1.17,1.17,0,0,0-.36.44l-5.43,14.17a6.05,6.05,0,0,1-5.38,3.84H210.43a3.87,3.87,0,0,1-4.07-3.92,4.61,4.61,0,0,1,.34-1.74L220,103.49a6.1,6.1,0,0,1,5.43-3.84h28.11a3.88,3.88,0,0,1,4,3.92,4.66,4.66,0,0,1-.34,1.75l-4.9,12.78a1,1,0,0,0,.36-.44l5.43-14.17a6.11,6.11,0,0,1,5.44-3.84h28.16a3.79,3.79,0,0,1,4,3.86,5.18,5.18,0,0,1-.3,1.67L282,139.8a5.94,5.94,0,0,1-5.32,3.84Z"/><path d="M291.66,102.15a1.32,1.32,0,0,1,1.47,1.36,2.67,2.67,0,0,1-.17.87L279.7,138.91a3.46,3.46,0,0,1-3,2.23H248.54a1.39,1.39,0,0,1-1.57-1.42,2.13,2.13,0,0,1,.16-.81l5.44-14.19a2.21,2.21,0,0,0,.16-.82,1.37,1.37,0,0,0-1.52-1.41h-1.09a3.6,3.6,0,0,0-3.1,2.23l-5.43,14.19a3.54,3.54,0,0,1-3.05,2.23H210.43a1.39,1.39,0,0,1-1.57-1.42,2.13,2.13,0,0,1,.16-.81l13.27-34.53a3.59,3.59,0,0,1,3.09-2.23h28.11a1.37,1.37,0,0,1,1.52,1.42,2.13,2.13,0,0,1-.16.81l-5.43,14.19a2.19,2.19,0,0,0-.17.82,1.38,1.38,0,0,0,1.52,1.41h1.09a3.6,3.6,0,0,0,3.1-2.23l5.44-14.19a3.6,3.6,0,0,1,3.1-2.23h28.16m0-5H263.5a8.3,8.3,0,0,0-5.24,1.95,6.56,6.56,0,0,0-4.77-1.95H225.38a8.56,8.56,0,0,0-7.75,5.41l-13.27,34.53a7.26,7.26,0,0,0-.5,2.63,6.35,6.35,0,0,0,6.57,6.42h28.11a8.12,8.12,0,0,0,5.19-2,6.64,6.64,0,0,0,4.81,2h28.17a8.48,8.48,0,0,0,7.64-5.41l13.28-34.55,0-.11,0-.1a7.5,7.5,0,0,0,.43-2.46,6.28,6.28,0,0,0-6.47-6.36Z"/><path class="cls-1" d="M127.75,187.81a3.86,3.86,0,0,1-4.07-3.91,4.66,4.66,0,0,1,.34-1.75l9.79-25.48a3.82,3.82,0,0,1-.84.1,3.14,3.14,0,0,1-2.36-1L119.76,184a6,6,0,0,1-5.38,3.83H86.27a3.87,3.87,0,0,1-4.08-3.91,4.58,4.58,0,0,1,.35-1.74l13.25-34.5a6.09,6.09,0,0,1,5.43-3.83h29.31a5.08,5.08,0,0,1,4.73,3h0a9.09,9.09,0,0,1,6.18-3h29.36a3.88,3.88,0,0,1,4,3.92,4.64,4.64,0,0,1-.34,1.74L161.24,184a6,6,0,0,1-5.38,3.83Z"/><path d="M170.81,146.33a1.37,1.37,0,0,1,1.52,1.42,2.13,2.13,0,0,1-.16.81l-13.26,34.52a3.52,3.52,0,0,1-3,2.23H127.75a1.38,1.38,0,0,1-1.57-1.41,2.21,2.21,0,0,1,.16-.82l13.27-34.52c0-.11,0-.16.1-.27a6.16,6.16,0,0,0-1.57,1.2l-4.35,4.4a1.15,1.15,0,0,1-.82.38.56.56,0,0,1-.6-.38l-1-4.4a1.74,1.74,0,0,0-.6-1.2c-.06.11-.06.16-.11.27l-13.27,34.52a3.51,3.51,0,0,1-3,2.23H86.27a1.39,1.39,0,0,1-1.58-1.41,2.23,2.23,0,0,1,.17-.82l13.26-34.52a3.6,3.6,0,0,1,3.1-2.23h29.31a2.72,2.72,0,0,1,2.71,2.29l.66,3.2,3.15-3.2a6.7,6.7,0,0,1,4.4-2.29h29.36m0-5H141.45a10.33,10.33,0,0,0-5.78,1.95,7.54,7.54,0,0,0-5.14-1.95H101.22a8.55,8.55,0,0,0-7.75,5.41L80.2,181.27a7.07,7.07,0,0,0-.51,2.63,6.35,6.35,0,0,0,6.58,6.41h28.11a8.48,8.48,0,0,0,7.15-4.26,6.37,6.37,0,0,0,6.22,4.26h28.11a8.51,8.51,0,0,0,7.7-5.4l13.27-34.53a7.26,7.26,0,0,0,.5-2.63,6.33,6.33,0,0,0-6.52-6.42Z"/><path class="cls-1" d="M169.55,187.81a5,5,0,0,1-5.22-5.05,7,7,0,0,1,.4-2.15l12-31.31a8.91,8.91,0,0,1,7.77-5.47h62.91a4.87,4.87,0,0,1,5.11,4.95,6.85,6.85,0,0,1-.4,2.2l-12,31.31a8.86,8.86,0,0,1-7.66,5.52Zm44.76-37.11a1,1,0,0,0-.35.4l-11.43,29.83a1.15,1.15,0,0,0,.36-.44Z"/><path d="M247.41,146.33a2.39,2.39,0,0,1,2.61,2.45,4.73,4.73,0,0,1-.27,1.41l-12,31.21a6.31,6.31,0,0,1-5.32,3.91H169.55a2.53,2.53,0,0,1-2.72-2.55,4.13,4.13,0,0,1,.28-1.36l12-31.21a6.41,6.41,0,0,1,5.43-3.86h62.91M201,183.63h1.09a3.6,3.6,0,0,0,3.1-2.23l12-31.21a2.13,2.13,0,0,0,.16-.81,1.33,1.33,0,0,0-1.52-1.36h-1.09a3.54,3.54,0,0,0-3.1,2.17l-12,31.21a2.13,2.13,0,0,0-.16.81,1.37,1.37,0,0,0,1.52,1.42m46.38-42.3H184.5a11.4,11.4,0,0,0-10.1,7.07l-12,31.21,0,.1,0,.11a9.32,9.32,0,0,0-.53,2.94,7.56,7.56,0,0,0,7.72,7.55h62.91a11.35,11.35,0,0,0,10-7.12l12-31.21,0-.1,0-.11a9.49,9.49,0,0,0,.53-3,7.36,7.36,0,0,0-7.61-7.45Z"/><path class="cls-1" d="M284.21,187.81a3.86,3.86,0,0,1-4.08-3.91,4.77,4.77,0,0,1,.34-1.74l4.9-12.79a1.1,1.1,0,0,0-.36.44L279.58,184a6,6,0,0,1-5.38,3.83H246.09A3.86,3.86,0,0,1,242,183.9a4.57,4.57,0,0,1,.34-1.74l13.25-34.5a6.12,6.12,0,0,1,5.44-3.83h64.58a4.87,4.87,0,0,1,5.11,4.95,7,7,0,0,1-.4,2.2l-3.67,9.67a12.46,12.46,0,0,1-3.86,4.94l-1.2.86.16.24a6,6,0,0,1,.82,3.13,9,9,0,0,1-.53,2.87l-.05.13L322,173l-4.26,11a5.93,5.93,0,0,1-5.32,3.83Zm8.33-37.11a1,1,0,0,0-.35.4l-4.26,11.18a1.08,1.08,0,0,0,.36-.44Z"/><path d="M325.63,146.33a2.39,2.39,0,0,1,2.61,2.45,4.73,4.73,0,0,1-.27,1.41l-3.64,9.57a10,10,0,0,1-3,3.81l-3.1,2.23,1.41,2.22a3.45,3.45,0,0,1,.44,1.8,6.23,6.23,0,0,1-.38,2l-.06.11-4.29,11.14a3.44,3.44,0,0,1-3,2.23H284.21a1.39,1.39,0,0,1-1.58-1.41,2.21,2.21,0,0,1,.16-.82l5.44-14.18a2.21,2.21,0,0,0,.16-.82,1.37,1.37,0,0,0-1.52-1.41h-1.09a3.59,3.59,0,0,0-3.1,2.23l-5.43,14.18a3.52,3.52,0,0,1-3.05,2.23H246.09a1.39,1.39,0,0,1-1.57-1.41,2.21,2.21,0,0,1,.16-.82L258,148.56a3.6,3.6,0,0,1,3.1-2.23h64.58M286.44,165h1.08a3.6,3.6,0,0,0,3.1-2.23l4.79-12.56a2.33,2.33,0,0,0,.16-.81,1.33,1.33,0,0,0-1.52-1.36H293a3.54,3.54,0,0,0-3.1,2.17l-4.78,12.56a2.19,2.19,0,0,0-.17.82,1.38,1.38,0,0,0,1.53,1.41m39.19-23.65H261.05a8.58,8.58,0,0,0-7.76,5.41L240,181.27a7.26,7.26,0,0,0-.5,2.63,6.35,6.35,0,0,0,6.57,6.41H274.2a8.21,8.21,0,0,0,5.2-1.95,6.6,6.6,0,0,0,4.81,1.95h28.16a8.49,8.49,0,0,0,7.65-5.4l4.22-11,.07-.15.1-.26a11.39,11.39,0,0,0,.68-3.72,9.42,9.42,0,0,0-.36-2.56,14.87,14.87,0,0,0,4.26-5.68l3.65-9.61,0-.1,0-.1a9.46,9.46,0,0,0,.52-3,7.36,7.36,0,0,0-7.61-7.45Z"/><polygon class="cls-1" points="134.06 72.75 128.37 74.92 114.12 86.47 120.64 90.89 138.78 73.77 134.06 72.75"/><path class="cls-1" d="M111.37,175.59a2.49,2.49,0,0,1-2.5-2.5c0-34.7-5.93-55.9-18.66-66.7C79,96.86,63.58,96.1,44.62,96.1a2.5,2.5,0,0,1,0-5c33,0,48-4.14,55.63-15.27,8.21-12,8.62-33.51,8.62-67.58a2.5,2.5,0,0,1,5,0c0,34.14.41,55.67,8.52,67.58C130,87,145.06,91.1,178.12,91.1a2.5,2.5,0,0,1,0,5c-19,0-34.35.76-45.58,10.29-12.74,10.8-18.67,32-18.67,66.7A2.49,2.49,0,0,1,111.37,175.59Z"/><path d="M111.37,8.25c0,70.17,1.62,85.35,66.75,85.35h0c-36.86,0-66.75,2.51-66.75,79.49,0-77-29.88-79.49-66.74-79.49h0c64.86,0,66.75-15.18,66.75-85.35M178.12,93.6h0M111.37,3.25a5,5,0,0,0-5,5c0,33.59-.39,54.76-8.18,66.17C91.13,84.76,76.61,88.6,44.62,88.6a5,5,0,0,0,0,10c18.44,0,33.39.71,44,9.69,4.4,3.74,17.78,15.1,17.78,64.8a5,5,0,0,0,5,5h0a5,5,0,0,0,5-5c0-49.71,13.39-61.07,17.79-64.8,10.58-9,25.52-9.69,44-9.69h0a5,5,0,0,0,0-10h0c-32.09,0-46.64-3.84-53.66-14.17-7.7-11.32-8.09-32.52-8.09-66.18a5,5,0,0,0-5-5Z"/></g></g></svg>