<svg xmlns="http://www.w3.org/2000/svg" viewBox="0 0 441 441">
    <defs>
        <style>.cls-1,.cls-2{fill:#fff;}.cls-2{stroke:#fff;stroke-miterlimit:10;}</style>
    </defs>

    <g id="Layer_2" data-name="Layer 2">
        <g id="Layer_1-2" data-name="Layer 1">
            <circle class="cls-1" cx="220.5" cy="220.75" r="17"/>
            <path class="cls-1" d="M220.5,204.25a16.5,16.5,0,1,1-16.5,16.5,16.52,16.52,0,0,1,16.5-16.5m0-1a17.5,17.5,0,1,0,17.5,17.5,17.49,17.49,0,0,0-17.5-17.5Z"/>
            <line class="cls-2" x1="220.5" y1="428.75" x2="220.5" y2="12.75"/>
           
            <circle class="cls-1" cx="220.5" cy="12.5" r="12"/>
            <path class="cls-1" d="M220.5,1A11.5,11.5,0,1,1,209,12.5,11.51,11.51,0,0,1,220.5,1m0-1A12.5,12.5,0,1,0,233,12.5,12.5,12.5,0,0,0,220.5,0Z"/>
            <circle class="cls-1" cx="220.5" cy="428.5" r="12"/>
            
            <path class="cls-1" d="M220.5,417A11.5,11.5,0,1,1,209,428.5,11.51,11.51,0,0,1,220.5,417m0-1A12.5,12.5,0,1,0,233,428.5,12.5,12.5,0,0,0,220.5,416Z"/>
            <line class="cls-2" x1="428.75" y1="220.5" x2="12.75" y2="220.5"/>
            <circle class="cls-1" cx="12.5" cy="220.5" r="12"/>
            
            <path class="cls-1" d="M12.5,209A11.5,11.5,0,1,1,1,220.5,11.51,11.51,0,0,1,12.5,209m0-1A12.5,12.5,0,1,0,25,220.5,12.5,12.5,0,0,0,12.5,208Z"/>
            <circle class="cls-1" cx="428.5" cy="220.5" r="12"/>
            <path class="cls-1" d="M428.5,209A11.5,11.5,0,1,1,417,220.5,11.51,11.51,0,0,1,428.5,209m0-1A12.5,12.5,0,1,0,441,220.5,12.5,12.5,0,0,0,428.5,208Z"/>
            
            <line class="cls-2" x1="367.75" y1="367.75" x2="73.6" y2="73.6"/>
            <path class="cls-1" d="M73.42,85.42a12,12,0,1,1,8.49-3.51A11.93,11.93,0,0,1,73.42,85.42Z"/>
            <path class="cls-1" d="M73.42,61.92a11.51,11.51,0,1,1-8.13,3.37,11.43,11.43,0,0,1,8.13-3.37m0-1a12.5,12.5,0,1,0,8.84,3.66,12.46,12.46,0,0,0-8.84-3.66Z"/>
            <path class="cls-1" d="M367.58,379.58a12,12,0,1,1,8.48-3.52A11.92,11.92,0,0,1,367.58,379.58Z"/>
            <path class="cls-1" d="M367.58,356.08a11.51,11.51,0,1,1-8.13,3.37,11.39,11.39,0,0,1,8.13-3.37m0-1a12.5,12.5,0,1,0,8.84,3.66,12.46,12.46,0,0,0-8.84-3.66Z"/>
           
            <line class="cls-2" x1="367.75" y1="73.25" x2="73.6" y2="367.4"/>
            <path class="cls-1" d="M73.42,379.58a12,12,0,1,1,8.49-3.52A11.9,11.9,0,0,1,73.42,379.58Z"/>
            <path class="cls-1" d="M73.42,356.08a11.51,11.51,0,1,1-8.13,3.37,11.39,11.39,0,0,1,8.13-3.37m0-1a12.5,12.5,0,1,0,8.84,3.66,12.46,12.46,0,0,0-8.84-3.66Z"/>
            <path class="cls-1" d="M367.58,85.42a12,12,0,1,1,8.48-3.51A12,12,0,0,1,367.58,85.42Z"/>
            <path class="cls-1" d="M367.58,61.92a11.51,11.51,0,1,1-8.13,3.37,11.43,11.43,0,0,1,8.13-3.37m0-1a12.5,12.5,0,1,0,8.84,3.66,12.46,12.46,0,0,0-8.84-3.66Z"/>
        </g>
    </g>
</svg>