<svg xmlns="http://www.w3.org/2000/svg" viewBox="0 0 169.62 87.94"><defs><style>.cls-1{fill:#fff;}</style></defs><g id="Layer_2" data-name="Layer 2"><g id="Layer_1-2" data-name="Layer 1"><path class="cls-1" d="M137.93,2c15.85,0,26.43,3.92,29,10.76,2.7,7.12-3.1,17.51-15.92,28.5-13.53,11.59-33.22,22.63-55.45,31.07C72.83,81,49.55,85.94,31.7,85.94c-15.86,0-26.44-3.92-29-10.76C0,68.06,5.76,57.67,18.58,46.68,32.11,35.09,51.8,24.05,74,15.6,96.78,7,120.07,2,137.92,2h0m0-2C120.4,0,97.35,4.61,73.32,13.73,26.92,31.36-5.55,59.19.79,75.89c3.06,8,14.59,12,30.91,12,17.52,0,40.57-4.61,64.6-13.74,46.4-17.63,78.87-45.46,72.53-62.15C165.77,4,154.24,0,137.92,0Z"/></g></g></svg>