<svg xmlns="http://www.w3.org/2000/svg" viewBox="0 0 121 121"><defs><style>.cls-1{fill:none;}.cls-1,.cls-2{stroke:#fff;stroke-miterlimit:10;}.cls-2{fill:#fff;}</style></defs><g id="Layer_2" data-name="Layer 2"><g id="Layer_1-2" data-name="Layer 1"><path class="cls-1" d="M.5,60.5H16.88A43.62,43.62,0,0,0,60.5,104.12V120.5A60,60,0,0,1,.5,60.5Z"/><path class="cls-1" d="M60.5.5V16.87A43.62,43.62,0,0,0,16.88,60.5H.5A60,60,0,0,1,60.5.5Z"/><path class="cls-2" d="M60.5.5a60,60,0,0,1,60,60H104.13A43.63,43.63,0,0,0,60.5,16.87Z"/><path class="cls-1" d="M104.13,60.5H120.5a60,60,0,0,1-60,60V104.12A43.62,43.62,0,0,0,104.13,60.5Z"/><path class="cls-1" d="M60.5,16.87A43.63,43.63,0,1,1,16.88,60.5,43.63,43.63,0,0,1,60.5,16.87Z"/><path class="cls-1" d="M60.5,16.87A43.63,43.63,0,1,1,16.88,60.5,43.63,43.63,0,0,1,60.5,16.87Z"/><polyline class="cls-1" points="16.88 60.5 60.5 60.5 104.13 60.5"/><polyline class="cls-1" points="60.5 104.12 60.5 60.5 60.5 16.87"/></g></g></svg>