<svg xmlns="http://www.w3.org/2000/svg" viewBox="0 0 192.22 148.77"><defs><style>.cls-1,.cls-2,.cls-3{fill:#fff;}.cls-1{stroke:#000;stroke-miterlimit:10;}.cls-2{font-size:27.21px;font-family:JUBYRoundedBlackItalic, JUBY Rounded;}</style></defs><g id="Layer_2" data-name="Layer 2"><g id="Layer_1-2" data-name="Layer 1"><path class="cls-1" d="M180.41,68.2c-.38.81-.77,1.63-1.17,2.44a118.5,118.5,0,0,1-12,19.07,156,156,0,0,1-30.51,30c-42.91,32.21-92.93,38-111.74,13C13.09,116.8,16.63,92.25,31.81,68.2a134.81,134.81,0,0,1,14.5-18.91c.79-.87,1.6-1.74,2.42-2.6,3.53-3.69,7.34-7.3,11.39-10.79q4.11-3.52,8.55-6.86c42.91-32.22,92.93-38,111.74-13C190.31,29.25,189.58,48.36,180.41,68.2Z"/><ellipse cx="94.83" cy="63.69" rx="82.48" ry="39.56" transform="translate(-19.25 69.7) rotate(-36.9)"/><path d="M1.82,67.7a1.33,1.33,0,0,1-1.14-.59,1,1,0,0,1-.09-1l8-18.17a1.32,1.32,0,0,1,1.22-.74H76.41a1.25,1.25,0,0,1,1.31,1.17V66.53a1.25,1.25,0,0,1-1.31,1.17Z"/><path d="M76.41,47.69a.75.75,0,0,1,.81.67V66.53a.75.75,0,0,1-.81.67H1.82a.84.84,0,0,1-.72-.36.53.53,0,0,1-.05-.53L9,48.13a.84.84,0,0,1,.77-.44H76.41m0-1H9.8a1.82,1.82,0,0,0-1.68,1L.13,65.9a1.7,1.7,0,0,0,1.69,2.3H76.41a1.75,1.75,0,0,0,1.81-1.67V48.36a1.74,1.74,0,0,0-1.81-1.67Z"/><path d="M186.57,70.64l-6.76,18a1.77,1.77,0,0,1-1.63,1H112.74A1.71,1.71,0,0,1,111,88V69.87a1.71,1.71,0,0,1,1.76-1.67h67.67c-.38.81-.77,1.63-1.17,2.44Z"/><path d="M192.19,69.61a2.88,2.88,0,0,1-.18.58l-1,2.1a1.09,1.09,0,0,1-1.43.54l-1-.48a1.08,1.08,0,0,1-.53-1.43l.13-.28h-8.93c.4-.81.79-1.63,1.17-2.44H191A1.16,1.16,0,0,1,192.19,69.61Z"/><path d="M180.41,68.2c-.38.81-.77,1.63-1.17,2.44h-2.61c-.35,0-.63-.18-.63-.39l1-1.66c0-.22.29-.39.63-.39Z"/><text class="cls-2" transform="translate(0.76 65.57)">MISH<tspan x="0" y="21.11" xml:space="preserve">  MORT</tspan></text><path class="cls-3" d="M55.69,83.18a.5.5,0,0,1-.5-.5c0-38.36-15.61-38.36-32.13-38.36a.5.5,0,0,1-.5-.5.5.5,0,0,1,.5-.5c31.15,0,32.13-6.54,32.13-41.23a.5.5,0,1,1,1,0c0,34.69,1,41.23,32.13,41.23a.5.5,0,0,1,.5.5.5.5,0,0,1-.5.5c-16.52,0-32.13,0-32.13,38.36A.5.5,0,0,1,55.69,83.18Z"/><path d="M55.69,2.09c0,34.31.79,41.73,32.63,41.73-18,0-32.63,1.22-32.63,38.86,0-37.64-14.61-38.86-32.63-38.86,31.71,0,32.63-7.42,32.63-41.73m0-1a1,1,0,0,0-1,1c0,34.27-1,40.73-31.63,40.73a1,1,0,1,0,0,2c9.31,0,16.88.37,22.43,5.08,6.28,5.33,9.2,15.74,9.2,32.78a1,1,0,0,0,2,0c0-17,2.93-27.45,9.21-32.78,5.54-4.71,13.11-5.08,22.42-5.08a1,1,0,0,0,0-2c-16.25,0-23.68-2-27.43-7.56-4-5.88-4.2-16.44-4.2-33.17a1,1,0,0,0-1-1Z"/><polygon class="cls-3" points="65.42 33.57 63.81 33.67 55.43 40.3 58.7 42.48 72.93 29.77 65.42 33.57"/></g></g></svg>