<svg xmlns="http://www.w3.org/2000/svg" viewBox="0 0 1874 959"><defs><style>.cls-1,.cls-2{fill:#fff;}.cls-2,.cls-3{stroke:#fff;stroke-miterlimit:10;}.cls-3{fill:none;}</style></defs><g id="Layer_2" data-name="Layer 2"><g id="Layer_2-2" data-name="Layer 2"><polygon class="cls-1" points="562.25 432.5 613.25 440.5 637.25 458.5 655.45 458.5 675.25 476.5 675.25 492 703.25 500.5 729.25 508.5 752.25 521.5 756.25 533.5 737.25 558.5 734.25 580.5 721.25 607.5 706.25 613.5 686.25 624.5 686.25 635.5 659.25 672 638.68 672 640.25 683.5 633.25 691.5 614.25 695.5 613.25 703.5 601.41 703.5 599.25 719.5 589.25 726.5 594.25 736.5 579.05 757.66 586.25 772.5 604.21 772.5 582.25 781.5 550.25 767.5 544.25 752.5 556.25 689.5 567.25 658.5 567.25 642.5 572.25 588.5 544.25 566.72 516.25 523.5 520.25 504.5 516.25 492 534.25 467.5 527.25 447.5 501.25 446.5 483.08 432.5 445.25 407.5 434.25 413.5 390.25 391.5 385.25 370.5 345.25 327.5 308.25 308.5 288.25 275.5 288.25 237.82 233.25 188.5 174.25 177.5 149.25 173.5 128.25 199.5 62.25 220.5 62.25 209.87 116.25 190.5 77.25 177.5 78.25 164.5 94.25 155.5 67.53 155.5 72.25 145.5 91.76 145.5 71.25 132.5 88.03 132.5 101.25 125.5 124.25 120.5 174.25 127.5 228.25 131.5 269.25 125.5 291.25 108.5 304.25 93.5 365.25 81.5 403.89 81.5 437.25 75.5 460.25 67.5 517.25 61.5 605.14 61.5 617.25 61.5 549.25 82.5 525.25 102.5 552.25 117.5 601.25 138.5 618.25 146.5 593.25 172.5 560.25 164.5 533.25 157.5 550.25 140.5 520.25 128.5 502.25 147.5 519.25 160.5 505.25 169.5 482.25 158.5 462.25 163.5 445.25 179.5 446.25 189.5 507.25 206.5 518.25 225.5 529.25 218.5 522.25 208.5 538.25 199.5 529.25 185.5 531.25 168.5 548.25 169.5 553.25 168.5 566.25 173.5 575.25 175.5 576.25 185.5 585.25 189.5 593.25 187.5 599.25 178.5 617.25 193.5 621.25 202.5 648.25 214.5 647.25 232.5 664.25 239.5 648.25 251.5 630.25 245.5 637.25 225.5 629.25 231.5 596.25 229.5 599.25 243.5 611.25 253.5 620.25 251.5 624.25 257.5 596.25 266.5 589.25 260.5 572.25 264.5 571.25 275.5 554.25 280.5 543.25 302.5 541.25 311.5 518.25 324.5 513.25 333.5 518.25 350.5 517.25 360.5 506.25 346.5 504.25 338.5 480.25 333.5 462.25 337.5 446.25 338.5 431.25 347.5 434.25 356.5 427.25 369.5 433.25 384.5 445.25 397.5 460.25 395.5 467.25 386.5 471.25 379.5 484.25 380.5 482.25 391.5 476.25 406.5 496.25 409.5 504.25 414.5 501.25 434.5 509.25 443.5 517.25 445.5 523.25 442.5 529.25 443.5 537.25 449.5 544.25 442.5 545.25 436.5 552.25 433.5 562.25 432.5"/><polygon class="cls-1" points="560.25 85.5 584.25 99.5 612.25 96.5 637.25 101.5 652.25 114.5 670.25 123.5 657.25 142.5 686.25 174.5 709.25 180.5 730.25 152.5 745.25 150.5 772.25 139.5 823.25 128.5 823.25 113.28 845.25 101.5 836.25 82.5 874.25 68.5 830.25 66.5 798.25 57.5 736.58 57.5 717.25 61.5 694.25 59.5 676.25 65.5 636.25 64.5 587.25 75.5 603.25 79.5 560.25 85.5"/><polygon class="cls-1" points="904.25 305.5 886.25 326.5 882.25 341.5 861.25 356.5 848.25 378.5 848.25 390.04 855.25 399.5 848.25 413.91 863.25 442.5 898.25 469.5 922.38 469.5 951.25 459.5 966.25 461.5 985.68 469.5 992.25 480.5 984.65 492 1009.25 542.5 998.25 577.5 1009.25 605.91 1013.25 609.5 1018.25 634.5 1024.25 641.5 1033.25 657.5 1031.25 665.5 1038.25 672.5 1057.25 668.5 1070.25 668.5 1086.25 662.5 1104.25 640.5 1106.25 627.5 1122.25 618.5 1117.25 597.5 1149.25 572.5 1147.25 548.5 1138.25 522.5 1169.25 482.5 1182.25 474.5 1203.25 446.5 1203.25 432.35 1175.25 440.5 1159.25 441.5 1161.25 427.5 1200.25 412.5 1225.25 399.5 1244.25 380.5 1237.25 367.5 1229.25 357.5 1215.25 364.5 1200.25 358.5 1185.25 337.5 1197.25 333.5 1203.25 343.5 1219.25 353.5 1231.25 351.5 1235.25 357.5 1256.25 362.5 1283.25 359.5 1296.25 377.5 1305.25 386.5 1316.25 387.5 1316.25 407.63 1331.25 432.5 1338.25 448.5 1352.25 437.5 1354.25 424.5 1354.25 414.22 1391.25 381.5 1409.25 375.5 1417.25 384.5 1427.25 392.5 1427.25 405.99 1436.25 410.5 1440.25 405.5 1449.25 426.5 1449.25 443.33 1455.25 459.5 1462.25 477.5 1478.25 486.5 1472.25 466.5 1460.25 452.5 1455.25 438.5 1458.25 420.5 1478.25 442.78 1505.25 427.5 1501.25 409.5 1488.25 394.5 1495.62 382.92 1510.25 384.5 1527.25 379.5 1545.25 370.5 1557.25 359.5 1568.25 336.5 1565.25 320.5 1561.25 311.5 1571.25 303.5 1566.25 297.5 1552.77 297.5 1551.25 289.5 1571.25 281.86 1583.53 281.86 1587.92 292.18 1594.25 304.5 1594.25 313.72 1611.25 309.5 1611.25 298.34 1600.25 285.5 1611.25 278.02 1622.25 267.5 1635.25 269.5 1655.25 254.5 1668.25 234.5 1668.25 218.7 1661.25 209.5 1651.25 202.5 1672.25 189.5 1683.29 186.3 1707.25 186.5 1723.25 186.5 1740.25 186.5 1758.25 171.5 1769.25 176.5 1769.25 183.01 1757.25 189.5 1745.25 196.5 1744.25 206.5 1746.25 217.5 1751.25 226.5 1758.25 219.5 1769.25 215.41 1778.25 208.5 1782.25 200.5 1790.25 191.5 1800.25 180.5 1816.25 179.5 1822.25 183.5 1834.25 176.5 1848.25 171.5 1856.08 171.5 1861.25 166.25 1861.25 159.5 1861.25 151.5 1863.25 147.5 1860.25 138.25 1854.25 133.25 1849.25 128.5 1822.44 128.5 1818.25 133.5 1809.8 128.5 1780.7 128.5 1771.36 128.5 1760.25 121.5 1730.17 121.5 1711.25 116.5 1688.25 112.5 1664.81 112.5 1656.25 117.5 1635.25 120.5 1625.25 117.5 1617.25 122.5 1604.25 117.5 1584.63 112.5 1555.25 109.5 1536.3 109.5 1525.25 102.5 1527.25 96.5 1505.25 92.5 1484.25 89.5 1468.19 89.5 1457.25 95.5 1420.25 95.5 1395.25 101.5 1381.25 102.5 1374.25 108.5 1356.25 109.5 1352.25 114.5 1335.25 116.5 1325.25 111.5 1319.25 117.5 1306.25 109.5 1290.25 115.5 1284.25 124.5 1282.25 135.5 1256.25 129.5 1242.25 125.5 1239.25 134.5 1214.25 134.5 1191.25 137.5 1175.25 142.5 1165.25 136.5 1145.25 137.5 1114.25 130.5 1093.25 125.5 1073.25 123.5 1049.25 125.5 1032.25 130.5 1011.25 141.5 995.25 153.5 975.25 164.5 963.25 173.5 968.25 188.5 979.25 191.5 992.25 184.5 1004.25 198.5 1022.25 196.5 1027.25 185.5 1034.25 183.5 1026.25 170.5 1037.25 165.5 1045.25 158.5 1055.25 147.5 1066.25 151.5 1063.25 158.5 1049.25 164.5 1049.25 176.5 1060.25 178.5 1060.25 186.5 1064.25 194.5 1049.25 192.5 1047.25 203.5 1031.25 208.5 1016.25 210.5 999.25 212.5 987.25 203.5 987.25 195.5 979.25 200.5 980.25 213.5 959.25 220.5 948.25 225.5 945.25 216.5 934.25 208.5 923.25 199.5 926.25 192.5 918.25 185.5 902.25 191.5 904.25 199.5 893.25 207.5 884.25 212.5 887.25 217.5 884.25 222.5 892.25 224.5 903.25 220.5 907.25 209.5 916.25 210.5 909.25 221.5 908.25 232.5 925.25 232.5 924.25 240.5 911.25 241.5 924.25 251.5 929.25 262.5 915.25 265.5 897.25 265.5 886.25 270.5 886.25 284.5 893.25 297.5 904.25 305.5"/><polygon class="cls-1" points="1574.25 579.5 1566.25 593.5 1549.25 600.5 1533.25 606.5 1525.25 620.5 1533.25 638.5 1542.25 660.5 1536.25 669.5 1546.25 676.5 1559.25 669.5 1578.25 668.5 1585.25 660.5 1608.25 657.5 1622.25 657.5 1634.25 661.5 1641.14 672.5 1654.25 662.5 1655.34 672.5 1662.25 680.5 1668.25 690.5 1681.25 694.5 1693.25 690.5 1700.25 693.5 1715.25 685.5 1716.25 666.5 1729.25 656.5 1733.25 632.5 1728.25 620.5 1710.25 600.5 1700.25 590.5 1689.25 567.5 1683.29 565.86 1676.25 548.5 1672.25 565.5 1669.25 582.5 1664.25 584.5 1642.25 570.5 1647.25 555.5 1629.25 553.47 1616.25 557.5 1612.25 565.5 1612.25 570.5 1601.25 567.5 1596.25 564.5 1586.25 571.5 1582.25 577.5 1580.25 583.5 1574.25 579.5"/><polygon class="cls-1" points="1452.25 475.5 1444.25 465.5 1433.25 462.5 1433.25 469 1444.25 477.5 1450.25 486.5 1462.25 504.5 1474.25 518.5 1483.25 523.5 1488.5 528.92 1518.25 536.5 1539.25 538.5 1553.25 544.5 1583.13 544.5 1597.25 533.5 1568.25 536.5 1550.25 537.5 1530.25 531.5 1520.25 526.5 1502.25 526.5 1488.25 519.5 1486.25 506.5 1475.25 494.5 1472.25 487.5 1452.25 475.5"/><polygon class="cls-1" points="1515.25 484.98 1506.25 482.5 1503.97 492 1509.61 500.07 1515.25 507.44 1525.25 509.64 1537.25 513.5 1542.25 508.5 1542.25 500.81 1546.31 498 1546.31 488.66 1553.25 486.5 1547.25 476.5 1549.25 470.5 1553.25 466.2 1543.25 456.5 1537.11 462.5 1528.61 469.14 1522.25 475.5 1515.25 478.35 1515.25 484.98"/><polygon class="cls-1" points="1565.25 396.5 1559.25 411.5 1562.25 423.85 1570.25 433.5 1574.25 443.5 1570.25 454.5 1582.03 454.5 1583.87 462.5 1590.49 462.5 1595.28 456.5 1588.25 435.5 1584.25 423.5 1573.25 413.5 1574.25 399.5 1565.25 396.5"/><polygon class="cls-1" points="1625.11 492 1636.25 496.5 1636.25 507.07 1641.25 511.5 1643.25 508.5 1647.57 501.75 1653.83 501.75 1671.25 505.5 1685.86 511.5 1694.25 517.5 1700.25 522.5 1710.9 522.5 1720.25 518.5 1724.15 513.5 1728.25 517.5 1721.25 524.5 1711.25 526.5 1702.06 528.92 1709.25 537.5 1717.89 544.5 1712.25 546.5 1705.01 544.5 1699.25 537.5 1693.25 531.5 1686.25 531.5 1683.29 535.05 1679.25 539.5 1668.25 537.5 1655.25 534.5 1659.25 526.5 1655.25 517.5 1647.25 516.5 1640.25 515.5 1625.11 511.86 1621.25 501.5 1616.25 497.5 1625.11 492"/><polygon class="cls-1" points="1559.25 495.29 1559.25 499.7 1553.25 506.7 1559.25 511.49 1556.25 519.25 1559.25 521.43 1562.25 517.5 1563.62 508.36 1570.25 515.5 1575.4 521.43 1577.27 513.5 1570.25 501.5 1577.27 498.23 1565.26 492 1577.27 492 1585.71 485 1579.45 485 1571.25 486.5 1563.25 485 1559.25 495.29"/><polygon class="cls-1" points="1192.25 554.5 1183.25 567.5 1179.25 572.5 1169.25 577.5 1166.25 584.5 1168.25 590.5 1168.25 596.5 1164.25 602.5 1163.25 610.5 1165.25 615.5 1167.25 623.5 1174.14 623.5 1181.25 621.5 1185.25 611.5 1189.25 598.5 1192.25 579.44 1194.25 573.5 1198.25 570.5 1196.25 560.5 1192.25 554.5"/><polygon class="cls-1" points="1680.25 211.5 1674.25 214.5 1674.25 224.45 1674.25 235.73 1674.25 250.64 1674.25 265.95 1664.25 270.5 1664.25 282.88 1661.36 292.18 1652.25 301.5 1644.25 305.5 1630.25 307.5 1622.25 312.5 1610.25 317.5 1614.25 323.5 1616.25 329.5 1626.25 317.5 1641.25 315.5 1655.25 311.5 1665.25 307.5 1671.03 292.18 1674.25 282.5 1674.25 272.5 1680.25 272.4 1689.25 267.5 1683.29 260.31 1681.25 249.5 1679.25 235.5 1686.25 234.5 1680.25 211.5"/><polygon class="cls-1" points="523.25 376.5 514.25 371.5 505.25 372.5 499.1 376.5 499.1 378.74 507.56 375.12 513.25 377.5 523.25 380.33 530.25 382.5 535.25 385.5 532.25 388.5 541.25 390.5 551.25 387.5 540.62 381 532.25 379.5 527.25 376.5 523.25 376.5"/><polygon class="cls-1" points="566.02 390.5 555.25 388.5 559.25 392.5 562.25 395.5 555.25 395.5 550.14 395.5 551.25 397.78 560.46 397.78 564.25 399.5 571.25 397.5 582.25 397.5 579.5 394 571.31 388.5 566.02 390.5"/><polygon class="cls-2" points="1 897.83 79.51 897.83 132.14 890.74 182.64 890.74 229.24 882.83 276.29 873.92 358.43 873.92 408.44 873.92 498.38 873.92 537.73 873.92 559.6 850.18 576.62 840.29 612.65 821.5 612.65 842.25 603.64 867.99 599.64 880.85 612.65 881.62 646.72 897.83 713.52 897.83 755.81 897.83 839.9 881.84 874.07 859.67 943.21 859.67 1001.07 853.15 1058.06 859.67 1107.18 854.14 1140.22 855.13 1186.27 845.24 1234.32 841.28 1296.38 848.21 1296.38 864.25 1321.41 854.14 1338.15 859.67 1366.46 837.33 1400.49 834.36 1464.56 831.39 1515.62 839.94 1528.99 837.62 1559.66 841.09 1586.15 835.3 1610.72 837.62 1635.75 834.36 1701.82 843.26 1753.87 849.2 1805.74 859.67 1824.49 859.67 1805.93 876.89 1784.91 885.79 1797.54 897.83 1873 897.83 1873 958 1 958 1 897.83"/><polygon class="cls-1" points="1838.25 674.5 1840.25 681.5 1845.25 688.5 1843.22 694.5 1839.25 698.5 1833.25 703.5 1828.25 712.5 1819.25 719.5 1811.25 724.5 1802.25 730.5 1814.25 734.5 1823.75 730.65 1829.25 721.5 1835.25 718.5 1841.25 709.5 1850.25 707.5 1855.25 700.5 1857.19 694.5 1861.25 691.5 1862.25 686.5 1849.25 689.5 1848.25 682.5 1842.34 674.5 1838.25 674.5"/><polygon class="cls-1" points="1690.25 703.5 1694.25 710.5 1694.25 714.06 1701.25 719.5 1708.25 709.5 1706.95 704.5 1699.25 706.49 1690.25 703.5"/><rect class="cls-3" x="0.5" y="0.5" width="1873" height="958"/><line class="cls-3" x1="0.5" y1="719" x2="1873.5" y2="719"/><line class="cls-3" x1="0.5" y1="479.5" x2="1873.5" y2="479.5"/><line class="cls-3" x1="0.5" y1="240" x2="1873.5" y2="240"/><line class="cls-3" x1="1639.38" y1="0.5" x2="1639.38" y2="958.5"/><line class="cls-3" x1="1405.25" y1="0.5" x2="1405.25" y2="958.5"/><line class="cls-3" x1="1171.13" y1="0.5" x2="1171.13" y2="958.5"/><line class="cls-3" x1="937" y1="0.5" x2="937" y2="958.5"/><line class="cls-3" x1="702.88" y1="0.5" x2="702.88" y2="958.5"/><line class="cls-3" x1="468.75" y1="0.5" x2="468.75" y2="958.5"/><line class="cls-3" x1="234.63" y1="0.5" x2="234.63" y2="958.5"/></g></g></svg>