<svg xmlns="http://www.w3.org/2000/svg" viewBox="0 0 71 114.14"><defs><style>.cls-1{fill:#fff;}.cls-2{fill:#010614;}.cls-3,.cls-4,.cls-5{fill:none;}.cls-4,.cls-5{stroke:#fff;stroke-miterlimit:10;}.cls-5{stroke-linecap:round;stroke-width:0.75px;}</style></defs><g id="Layer_2" data-name="Layer 2"><g id="Layer_3" data-name="Layer 3"><path class="cls-1" d="M48.63,81.55a30.23,30.23,0,0,1-26.26,0,34.58,34.58,0,0,0,26.26,0Z"/><path class="cls-2" d="M48.63,81.55a34.58,34.58,0,0,1-26.26,0,30.23,30.23,0,0,0,26.26,0Z"/><path class="cls-1" d="M48.63,81.55a34.58,34.58,0,0,1-26.26,0,30.23,30.23,0,0,0,26.26,0Z"/><path class="cls-1" d="M71,48.14H70q0,.75,0,1.5c0,.17,0,.33,0,.5a33.69,33.69,0,0,1-.49,5.36v57.14H1.5V63.9c0-3.15,0-6,0-8.36,0,0,0,0,0,0A33.69,33.69,0,0,1,1,50.14c0-.17,0-.33,0-.5q0-.75,0-1.5H0c0,.17,0,.33,0,.5v65.5H71V48.64c0-.17,0-.33,0-.5Z"/><path class="cls-1" d="M68.5,62.64v49H54.82L52.49,92.89l-2.34,18.75H20.85L18.51,92.89l-2.33,18.75H2.5s0-49,0-49l1,4c.81,3.18,12.13,18.53,31,19,2.27.06,16.76.19,27-11A33.38,33.38,0,0,0,68.5,62.64Z"/><path class="cls-3" d="M70,49.64a34.5,34.5,0,0,1-69,0q0-.75,0-1.5a34.5,34.5,0,0,1,68.94,0Q70,48.89,70,49.64Z"/><path class="cls-4" d="M70,48.64a17,17,0,0,1-34,0Z"/><line class="cls-4" x1="71" y1="49.14" x2="70.99" y2="49.14"/><path class="cls-1" d="M60.7,4.61a46.46,46.46,0,0,1,3.8,13.94c.15,1.17.23,2.37.29,3.47a21.73,21.73,0,0,1-.65,6.38,37,37,0,0,0-3.43-4,36.28,36.28,0,0,0-4.8-4c3.58-5.15,4.66-10,4.79-15.79M59.65.26c0,.25,0,.55,0,.81.26,8.33-.75,13.61-5.17,19.57a36.57,36.57,0,0,1,5.5,4.5,35.91,35.91,0,0,1,4.5,5.5A22.53,22.53,0,0,0,65.62,26a23,23,0,0,0,.17-4c-.07-1.2-.15-2.39-.3-3.57A48.52,48.52,0,0,0,59.65.26Z"/><path class="cls-1" d="M35.5,15.14A34.51,34.51,0,0,1,70,48.14H1a34.5,34.5,0,0,1,34.46-33m0-1A35.49,35.49,0,0,0,0,49.14H71a35.5,35.5,0,0,0-35.49-35Z"/><path class="cls-1" d="M68.2,47.27H54.36a33,33,0,0,0-1.8-5.38c-.24-.52-.48-1-.74-1.49a16.21,16.21,0,0,0-4.61-5.76l.16.36a35.61,35.61,0,0,1,2.75,12.27H17.84A35.38,35.38,0,0,1,20.6,35a3.88,3.88,0,0,1,.15-.36,16.32,16.32,0,0,0-4.61,5.76c-.25.47-.5,1-.74,1.49a33,33,0,0,0-1.8,5.38H2.8c.23-17,15.34-30.63,32.7-30.63a31.92,31.92,0,0,1,22.42,9.1C63.56,31.26,68.08,38.87,68.2,47.27Z"/><circle class="cls-4" cx="35.5" cy="49.64" r="34.5"/><path class="cls-5" d="M42.78,71.13a7.45,7.45,0,0,1-14.78,0"/><path class="cls-1" d="M51.48,71a.38.38,0,0,0,0-.75.38.38,0,0,0,0,.75Z"/><path class="cls-1" d="M56.39,69.73a.38.38,0,0,0,0-.75.38.38,0,0,0,0,.75Z"/><path class="cls-1" d="M54.23,72.92a.38.38,0,0,0,0-.75.38.38,0,0,0,0,.75Z"/><path class="cls-1" d="M14.82,69.44a.38.38,0,0,0,0-.75.38.38,0,0,0,0,.75Z"/><path class="cls-1" d="M20.3,70a.38.38,0,0,0,0-.75.38.38,0,0,0,0,.75Z"/><path class="cls-1" d="M17.7,72.77a.38.38,0,0,0,0-.75.38.38,0,0,0,0,.75Z"/><path class="cls-1" d="M10.64,4.35c.13,5.84,1.22,10.64,4.79,15.79a36.28,36.28,0,0,0-4.8,4,37,37,0,0,0-3.43,4,25.35,25.35,0,0,1-.5-2.55,23.51,23.51,0,0,1-.15-3.8c.06-1.13.14-2.33.29-3.53a46.22,46.22,0,0,1,3.8-13.91m1-4.35A48.34,48.34,0,0,0,5.85,18.16c-.15,1.18-.23,2.37-.3,3.57a24.27,24.27,0,0,0,.16,4,23.34,23.34,0,0,0,1.13,4.65,35.71,35.71,0,0,1,10-10c-4.43-6-5.43-11.24-5.17-19.57,0-.26,0-.56,0-.81Z"/><path class="cls-4" d="M35,48.64a16.75,16.75,0,0,1-17,16.5A16.75,16.75,0,0,1,1,48.64Z"/></g></g></svg>