<svg xmlns="http://www.w3.org/2000/svg" viewBox="0 0 121 121"><defs><style>.cls-1{fill:none;}.cls-1,.cls-2{stroke:#fff;stroke-miterlimit:10;}.cls-2{fill:#fff;}</style></defs><g id="Layer_2" data-name="Layer 2"><g id="Layer_1-2" data-name="Layer 1"><path class="cls-1" d="M120.5,60.5H90A29.5,29.5,0,0,0,60.5,31V.5A60,60,0,0,1,120.5,60.5Z"/><path class="cls-1" d="M31,60.5H.5a60,60,0,0,1,60-60V31A29.5,29.5,0,0,0,31,60.5Z"/><path class="cls-2" d="M60.5,120.5a60,60,0,0,1-60-60H31A29.5,29.5,0,0,0,60.5,90Z"/><path class="cls-1" d="M60.5,120.5V90A29.5,29.5,0,0,0,90,60.5h30.5A60,60,0,0,1,60.5,120.5Z"/><circle class="cls-1" cx="60.5" cy="60.5" r="29.5"/><circle class="cls-1" cx="60.5" cy="60.5" r="29.5"/></g></g></svg>